<mxfile host="app.diagrams.net" modified="2022-01-17T21:27:30.566Z" agent="5.0 (Windows NT 10.0; Win64; x64) AppleWebKit/537.36 (KHTML, like Gecko) Chrome/97.0.4692.71 Safari/537.36 Edg/97.0.1072.62" etag="mPi1hGMM1KxjNa9jzysh" version="16.2.6" type="github">
  <diagram id="-wDDZQ1BPINVp5NKnEa8" name="Page-1">
    <mxGraphModel dx="569" dy="378" grid="1" gridSize="10" guides="1" tooltips="1" connect="1" arrows="1" fold="1" page="1" pageScale="1" pageWidth="850" pageHeight="1100" math="0" shadow="0">
      <root>
        <mxCell id="0" />
        <mxCell id="1" parent="0" />
        <mxCell id="0fK3t2dXun-NDL-kbMtU-1" value="" style="ellipse;whiteSpace=wrap;html=1;fillColor=#dae8fc;strokeColor=#6c8ebf;strokeWidth=2;" vertex="1" parent="1">
          <mxGeometry x="120" y="110" width="10" height="10" as="geometry" />
        </mxCell>
        <mxCell id="0fK3t2dXun-NDL-kbMtU-16" style="edgeStyle=orthogonalEdgeStyle;rounded=0;orthogonalLoop=1;jettySize=auto;html=1;exitX=1;exitY=0.5;exitDx=0;exitDy=0;entryX=0;entryY=0.5;entryDx=0;entryDy=0;endArrow=none;endFill=0;fillColor=#dae8fc;strokeColor=#6c8ebf;dashed=1;dashPattern=1 1;strokeWidth=2;" edge="1" parent="1" source="0fK3t2dXun-NDL-kbMtU-2" target="0fK3t2dXun-NDL-kbMtU-7">
          <mxGeometry relative="1" as="geometry" />
        </mxCell>
        <mxCell id="0fK3t2dXun-NDL-kbMtU-18" style="rounded=0;orthogonalLoop=1;jettySize=auto;html=1;exitX=1;exitY=0.5;exitDx=0;exitDy=0;entryX=0;entryY=0.5;entryDx=0;entryDy=0;endArrow=none;endFill=0;dashed=1;dashPattern=1 1;strokeWidth=2;opacity=50;" edge="1" parent="1" source="0fK3t2dXun-NDL-kbMtU-2" target="0fK3t2dXun-NDL-kbMtU-6">
          <mxGeometry relative="1" as="geometry" />
        </mxCell>
        <mxCell id="0fK3t2dXun-NDL-kbMtU-2" value="" style="ellipse;whiteSpace=wrap;html=1;fillColor=#dae8fc;strokeColor=#6c8ebf;strokeWidth=2;" vertex="1" parent="1">
          <mxGeometry x="130" y="90" width="10" height="10" as="geometry" />
        </mxCell>
        <mxCell id="0fK3t2dXun-NDL-kbMtU-3" value="" style="ellipse;whiteSpace=wrap;html=1;fillColor=#dae8fc;strokeColor=#6c8ebf;strokeWidth=2;" vertex="1" parent="1">
          <mxGeometry x="120" y="130" width="10" height="10" as="geometry" />
        </mxCell>
        <mxCell id="0fK3t2dXun-NDL-kbMtU-4" value="" style="ellipse;whiteSpace=wrap;html=1;fillColor=#dae8fc;strokeColor=#6c8ebf;strokeWidth=2;" vertex="1" parent="1">
          <mxGeometry x="130" y="150" width="10" height="10" as="geometry" />
        </mxCell>
        <mxCell id="0fK3t2dXun-NDL-kbMtU-5" value="" style="ellipse;whiteSpace=wrap;html=1;fillColor=#d5e8d4;strokeColor=#82b366;strokeWidth=2;" vertex="1" parent="1">
          <mxGeometry x="210" y="50" width="10" height="10" as="geometry" />
        </mxCell>
        <mxCell id="0fK3t2dXun-NDL-kbMtU-6" value="" style="ellipse;whiteSpace=wrap;html=1;fillColor=#d5e8d4;strokeColor=#82b366;strokeWidth=2;" vertex="1" parent="1">
          <mxGeometry x="210" y="70" width="10" height="10" as="geometry" />
        </mxCell>
        <mxCell id="0fK3t2dXun-NDL-kbMtU-7" value="" style="ellipse;whiteSpace=wrap;html=1;fillColor=#d5e8d4;strokeColor=#82b366;strokeWidth=2;" vertex="1" parent="1">
          <mxGeometry x="200" y="90" width="10" height="10" as="geometry" />
        </mxCell>
        <mxCell id="0fK3t2dXun-NDL-kbMtU-8" value="" style="ellipse;whiteSpace=wrap;html=1;fillColor=#d5e8d4;strokeColor=#82b366;strokeWidth=2;" vertex="1" parent="1">
          <mxGeometry x="200" y="110" width="10" height="10" as="geometry" />
        </mxCell>
        <mxCell id="0fK3t2dXun-NDL-kbMtU-9" value="" style="ellipse;whiteSpace=wrap;html=1;fillColor=#d5e8d4;strokeColor=#82b366;strokeWidth=2;" vertex="1" parent="1">
          <mxGeometry x="210" y="130" width="10" height="10" as="geometry" />
        </mxCell>
        <mxCell id="0fK3t2dXun-NDL-kbMtU-10" value="" style="ellipse;whiteSpace=wrap;html=1;fillColor=#d5e8d4;strokeColor=#82b366;strokeWidth=2;" vertex="1" parent="1">
          <mxGeometry x="200" y="150" width="10" height="10" as="geometry" />
        </mxCell>
        <mxCell id="0fK3t2dXun-NDL-kbMtU-14" value="" style="ellipse;whiteSpace=wrap;html=1;fillColor=#d5e8d4;strokeColor=#82b366;strokeWidth=2;" vertex="1" parent="1">
          <mxGeometry x="200" y="30" width="10" height="10" as="geometry" />
        </mxCell>
        <mxCell id="0fK3t2dXun-NDL-kbMtU-19" style="rounded=0;orthogonalLoop=1;jettySize=auto;html=1;exitX=1;exitY=0.5;exitDx=0;exitDy=0;entryX=0;entryY=0.5;entryDx=0;entryDy=0;endArrow=none;endFill=0;dashed=1;dashPattern=1 1;strokeWidth=2;opacity=50;" edge="1" parent="1" source="0fK3t2dXun-NDL-kbMtU-2" target="0fK3t2dXun-NDL-kbMtU-8">
          <mxGeometry relative="1" as="geometry">
            <mxPoint x="150" y="105.00000000000006" as="sourcePoint" />
            <mxPoint x="220" y="85.00000000000006" as="targetPoint" />
          </mxGeometry>
        </mxCell>
        <mxCell id="0fK3t2dXun-NDL-kbMtU-20" style="rounded=0;orthogonalLoop=1;jettySize=auto;html=1;exitX=1;exitY=0.5;exitDx=0;exitDy=0;entryX=-0.167;entryY=0.456;entryDx=0;entryDy=0;endArrow=none;endFill=0;entryPerimeter=0;dashed=1;dashPattern=1 1;strokeWidth=2;opacity=50;" edge="1" parent="1" source="0fK3t2dXun-NDL-kbMtU-2" target="0fK3t2dXun-NDL-kbMtU-9">
          <mxGeometry relative="1" as="geometry">
            <mxPoint x="150" y="105.00000000000006" as="sourcePoint" />
            <mxPoint x="210" y="125.00000000000006" as="targetPoint" />
          </mxGeometry>
        </mxCell>
        <mxCell id="0fK3t2dXun-NDL-kbMtU-21" style="rounded=0;orthogonalLoop=1;jettySize=auto;html=1;exitX=1;exitY=0.5;exitDx=0;exitDy=0;entryX=0;entryY=0;entryDx=0;entryDy=0;endArrow=none;endFill=0;dashed=1;dashPattern=1 1;strokeWidth=2;opacity=50;" edge="1" parent="1" source="0fK3t2dXun-NDL-kbMtU-2" target="0fK3t2dXun-NDL-kbMtU-10">
          <mxGeometry relative="1" as="geometry">
            <mxPoint x="150" y="105.00000000000006" as="sourcePoint" />
            <mxPoint x="218.32999999999993" y="144.56" as="targetPoint" />
          </mxGeometry>
        </mxCell>
        <mxCell id="0fK3t2dXun-NDL-kbMtU-22" style="rounded=0;orthogonalLoop=1;jettySize=auto;html=1;exitX=1;exitY=0.5;exitDx=0;exitDy=0;entryX=0;entryY=0.5;entryDx=0;entryDy=0;endArrow=none;endFill=0;dashed=1;dashPattern=1 1;strokeWidth=2;opacity=50;" edge="1" parent="1" source="0fK3t2dXun-NDL-kbMtU-2" target="0fK3t2dXun-NDL-kbMtU-5">
          <mxGeometry relative="1" as="geometry">
            <mxPoint x="150" y="105.00000000000006" as="sourcePoint" />
            <mxPoint x="220" y="85.00000000000006" as="targetPoint" />
          </mxGeometry>
        </mxCell>
        <mxCell id="0fK3t2dXun-NDL-kbMtU-23" style="rounded=0;orthogonalLoop=1;jettySize=auto;html=1;exitX=1;exitY=0.5;exitDx=0;exitDy=0;entryX=0;entryY=1;entryDx=0;entryDy=0;endArrow=none;endFill=0;dashed=1;dashPattern=1 1;strokeWidth=2;opacity=50;" edge="1" parent="1" source="0fK3t2dXun-NDL-kbMtU-2" target="0fK3t2dXun-NDL-kbMtU-14">
          <mxGeometry relative="1" as="geometry">
            <mxPoint x="150" y="105.00000000000006" as="sourcePoint" />
            <mxPoint x="219.43999999999994" y="67.32999999999998" as="targetPoint" />
          </mxGeometry>
        </mxCell>
        <mxCell id="0fK3t2dXun-NDL-kbMtU-24" value="" style="ellipse;whiteSpace=wrap;html=1;fillColor=#dae8fc;strokeColor=#6c8ebf;strokeWidth=2;" vertex="1" parent="1">
          <mxGeometry x="250" y="110" width="10" height="10" as="geometry" />
        </mxCell>
        <mxCell id="0fK3t2dXun-NDL-kbMtU-26" style="rounded=0;orthogonalLoop=1;jettySize=auto;html=1;exitX=1;exitY=0.5;exitDx=0;exitDy=0;entryX=0;entryY=1;entryDx=0;entryDy=0;endArrow=none;endFill=0;dashed=1;dashPattern=1 1;strokeWidth=2;opacity=50;" edge="1" parent="1" source="0fK3t2dXun-NDL-kbMtU-24" target="0fK3t2dXun-NDL-kbMtU-36">
          <mxGeometry relative="1" as="geometry" />
        </mxCell>
        <mxCell id="0fK3t2dXun-NDL-kbMtU-27" value="" style="ellipse;whiteSpace=wrap;html=1;fillColor=#dae8fc;strokeColor=#6c8ebf;strokeWidth=2;" vertex="1" parent="1">
          <mxGeometry x="260" y="90" width="10" height="10" as="geometry" />
        </mxCell>
        <mxCell id="0fK3t2dXun-NDL-kbMtU-28" value="" style="ellipse;whiteSpace=wrap;html=1;fillColor=#dae8fc;strokeColor=#6c8ebf;strokeWidth=2;" vertex="1" parent="1">
          <mxGeometry x="250" y="130" width="10" height="10" as="geometry" />
        </mxCell>
        <mxCell id="0fK3t2dXun-NDL-kbMtU-29" value="" style="ellipse;whiteSpace=wrap;html=1;fillColor=#dae8fc;strokeColor=#6c8ebf;strokeWidth=2;" vertex="1" parent="1">
          <mxGeometry x="260" y="150" width="10" height="10" as="geometry" />
        </mxCell>
        <mxCell id="0fK3t2dXun-NDL-kbMtU-30" value="" style="ellipse;whiteSpace=wrap;html=1;fillColor=#d5e8d4;strokeColor=#82b366;strokeWidth=2;" vertex="1" parent="1">
          <mxGeometry x="340" y="50" width="10" height="10" as="geometry" />
        </mxCell>
        <mxCell id="0fK3t2dXun-NDL-kbMtU-31" value="" style="ellipse;whiteSpace=wrap;html=1;fillColor=#d5e8d4;strokeColor=#82b366;strokeWidth=2;" vertex="1" parent="1">
          <mxGeometry x="340" y="70" width="10" height="10" as="geometry" />
        </mxCell>
        <mxCell id="0fK3t2dXun-NDL-kbMtU-32" value="" style="ellipse;whiteSpace=wrap;html=1;fillColor=#d5e8d4;strokeColor=#82b366;strokeWidth=2;" vertex="1" parent="1">
          <mxGeometry x="330" y="90" width="10" height="10" as="geometry" />
        </mxCell>
        <mxCell id="0fK3t2dXun-NDL-kbMtU-33" value="" style="ellipse;whiteSpace=wrap;html=1;fillColor=#d5e8d4;strokeColor=#82b366;strokeWidth=2;" vertex="1" parent="1">
          <mxGeometry x="330" y="110" width="10" height="10" as="geometry" />
        </mxCell>
        <mxCell id="0fK3t2dXun-NDL-kbMtU-34" value="" style="ellipse;whiteSpace=wrap;html=1;fillColor=#d5e8d4;strokeColor=#82b366;strokeWidth=2;" vertex="1" parent="1">
          <mxGeometry x="340" y="130" width="10" height="10" as="geometry" />
        </mxCell>
        <mxCell id="0fK3t2dXun-NDL-kbMtU-35" value="" style="ellipse;whiteSpace=wrap;html=1;fillColor=#d5e8d4;strokeColor=#82b366;strokeWidth=2;" vertex="1" parent="1">
          <mxGeometry x="330" y="150" width="10" height="10" as="geometry" />
        </mxCell>
        <mxCell id="0fK3t2dXun-NDL-kbMtU-36" value="" style="ellipse;whiteSpace=wrap;html=1;fillColor=#d5e8d4;strokeColor=#82b366;strokeWidth=2;" vertex="1" parent="1">
          <mxGeometry x="330" y="30" width="10" height="10" as="geometry" />
        </mxCell>
        <mxCell id="0fK3t2dXun-NDL-kbMtU-40" style="rounded=0;orthogonalLoop=1;jettySize=auto;html=1;exitX=1;exitY=0.5;exitDx=0;exitDy=0;entryX=0;entryY=1;entryDx=0;entryDy=0;endArrow=none;endFill=0;dashed=1;dashPattern=1 1;strokeWidth=2;fillColor=#d5e8d4;strokeColor=#82b366;" edge="1" parent="1" source="0fK3t2dXun-NDL-kbMtU-27" target="0fK3t2dXun-NDL-kbMtU-36">
          <mxGeometry relative="1" as="geometry">
            <mxPoint x="280" y="105.00000000000006" as="sourcePoint" />
            <mxPoint x="350" y="85.00000000000006" as="targetPoint" />
          </mxGeometry>
        </mxCell>
        <mxCell id="0fK3t2dXun-NDL-kbMtU-41" style="rounded=0;orthogonalLoop=1;jettySize=auto;html=1;exitX=1;exitY=0.5;exitDx=0;exitDy=0;entryX=0;entryY=1;entryDx=0;entryDy=0;endArrow=none;endFill=0;dashed=1;dashPattern=1 1;strokeWidth=2;opacity=50;" edge="1" parent="1" source="0fK3t2dXun-NDL-kbMtU-29" target="0fK3t2dXun-NDL-kbMtU-36">
          <mxGeometry relative="1" as="geometry">
            <mxPoint x="280" y="105.00000000000006" as="sourcePoint" />
            <mxPoint x="349.43999999999994" y="67.32999999999998" as="targetPoint" />
          </mxGeometry>
        </mxCell>
        <mxCell id="0fK3t2dXun-NDL-kbMtU-42" style="rounded=0;orthogonalLoop=1;jettySize=auto;html=1;exitX=1;exitY=0.5;exitDx=0;exitDy=0;entryX=0;entryY=1;entryDx=0;entryDy=0;endArrow=none;endFill=0;dashed=1;dashPattern=1 1;strokeWidth=2;opacity=50;" edge="1" parent="1" source="0fK3t2dXun-NDL-kbMtU-28" target="0fK3t2dXun-NDL-kbMtU-36">
          <mxGeometry relative="1" as="geometry">
            <mxPoint x="270" y="125.00000000000006" as="sourcePoint" />
            <mxPoint x="341.4644660940671" y="48.53553390593282" as="targetPoint" />
          </mxGeometry>
        </mxCell>
        <mxCell id="0fK3t2dXun-NDL-kbMtU-44" style="rounded=0;orthogonalLoop=1;jettySize=auto;html=1;entryX=0;entryY=1;entryDx=0;entryDy=0;endArrow=none;endFill=0;dashed=1;dashPattern=1 1;strokeWidth=2;fillColor=#d5e8d4;strokeColor=#82b366;" edge="1" parent="1">
          <mxGeometry relative="1" as="geometry">
            <mxPoint x="370" y="50" as="sourcePoint" />
            <mxPoint x="370.00446609406725" y="139.66553390593276" as="targetPoint" />
          </mxGeometry>
        </mxCell>
        <mxCell id="0fK3t2dXun-NDL-kbMtU-45" style="edgeStyle=orthogonalEdgeStyle;rounded=0;orthogonalLoop=1;jettySize=auto;html=1;entryX=0;entryY=0.5;entryDx=0;entryDy=0;endArrow=none;endFill=0;fillColor=#dae8fc;strokeColor=#6c8ebf;dashed=1;dashPattern=1 1;strokeWidth=2;" edge="1" parent="1">
          <mxGeometry relative="1" as="geometry">
            <mxPoint x="380" y="70.33" as="sourcePoint" />
            <mxPoint x="380" y="120" as="targetPoint" />
          </mxGeometry>
        </mxCell>
        <mxCell id="0fK3t2dXun-NDL-kbMtU-52" value="" style="ellipse;whiteSpace=wrap;html=1;fillColor=#d5e8d4;strokeColor=#82b366;strokeWidth=2;" vertex="1" parent="1">
          <mxGeometry x="390" y="80" width="10" height="10" as="geometry" />
        </mxCell>
        <mxCell id="0fK3t2dXun-NDL-kbMtU-53" value="gt" style="text;html=1;align=center;verticalAlign=middle;resizable=0;points=[];autosize=1;strokeColor=none;fillColor=none;" vertex="1" parent="1">
          <mxGeometry x="396" y="74" width="30" height="20" as="geometry" />
        </mxCell>
        <mxCell id="0fK3t2dXun-NDL-kbMtU-54" value="" style="ellipse;whiteSpace=wrap;html=1;fillColor=#dae8fc;strokeColor=#6c8ebf;strokeWidth=2;" vertex="1" parent="1">
          <mxGeometry x="390" y="100" width="10" height="10" as="geometry" />
        </mxCell>
        <mxCell id="0fK3t2dXun-NDL-kbMtU-55" value="pred" style="text;html=1;align=center;verticalAlign=middle;resizable=0;points=[];autosize=1;strokeColor=none;fillColor=none;" vertex="1" parent="1">
          <mxGeometry x="398" y="94" width="40" height="20" as="geometry" />
        </mxCell>
      </root>
    </mxGraphModel>
  </diagram>
</mxfile>
